HIERARCHY
ROOT Hips
{
  OFFSET 0.0000 88.1582 0.0000
  CHANNELS 6 Xposition Yposition Zposition Yrotation Xrotation Zrotation
  JOINT Spine
  {
    OFFSET 0.0000 12.4674 0.0000
    CHANNELS 3 Yrotation Xrotation Zrotation
    JOINT Spine1
    {
      OFFSET 0.0000 12.2380 0.0000
      CHANNELS 3 Yrotation Xrotation Zrotation
      JOINT Spine2
      {
        OFFSET 0.0000 11.5142 0.0000
        CHANNELS 3 Yrotation Xrotation Zrotation
        JOINT LeftShoulder
        {
          OFFSET 6.6026 9.6620 0.0000
          CHANNELS 3 Yrotation Xrotation Zrotation
          JOINT LeftArm
          {
            OFFSET 0.0000 12.6234 0.0000
            CHANNELS 3 Yrotation Xrotation Zrotation
            JOINT LeftForeArm
            {
              OFFSET -0.0001 24.4780 0.0000
              CHANNELS 3 Yrotation Xrotation Zrotation
              JOINT LeftHand
              {
                OFFSET 0.0000 26.9540 0.0000
                CHANNELS 3 Yrotation Xrotation Zrotation
                JOINT LeftHandIndex1
                {
                  OFFSET -2.4222 7.6359 0.0974
                  CHANNELS 3 Yrotation Xrotation Zrotation
                  JOINT LeftHandIndex2
                  {
                    OFFSET 0.0000 4.3320 0.0000
                    CHANNELS 3 Yrotation Xrotation Zrotation
                    JOINT LeftHandIndex3
                    {
                      OFFSET 0.0000 2.6652 0.0000
                      CHANNELS 3 Yrotation Xrotation Zrotation
                      End Site
                      {
                        OFFSET 0.0000 1.3566 0.0000
                      }
                    }
                  }
                }
                JOINT LeftHandMiddle1
                {
                  OFFSET -0.5154 7.6951 0.0974
                  CHANNELS 3 Yrotation Xrotation Zrotation
                  JOINT LeftHandMiddle2
                  {
                    OFFSET 0.0000 4.4473 0.0000
                    CHANNELS 3 Yrotation Xrotation Zrotation
                    JOINT LeftHandMiddle3
                    {
                      OFFSET 0.0000 2.9333 0.0000
                      CHANNELS 3 Yrotation Xrotation Zrotation
                      End Site
                      {
                        OFFSET 0.0000 1.4991 0.0000
                      }
                    }
                  }
                }
                JOINT LeftHandPinky1
                {
                  OFFSET 2.9666 6.6373 0.0975
                  CHANNELS 3 Yrotation Xrotation Zrotation
                  JOINT LeftHandPinky2
                  {
                    OFFSET 0.0000 3.3612 0.0000
                    CHANNELS 3 Yrotation Xrotation Zrotation
                    JOINT LeftHandPinky3
                    {
                      OFFSET 0.0000 2.1128 0.0000
                      CHANNELS 3 Yrotation Xrotation Zrotation
                      End Site
                      {
                        OFFSET 0.0000 1.1205 0.0000
                      }
                    }
                  }
                }
                JOINT LeftHandRing1
                {
                  OFFSET 1.3623 7.3832 0.0975
                  CHANNELS 3 Yrotation Xrotation Zrotation
                  JOINT LeftHandRing2
                  {
                    OFFSET 0.0000 4.1539 0.0000
                    CHANNELS 3 Yrotation Xrotation Zrotation
                    JOINT LeftHandRing3
                    {
                      OFFSET 0.0000 2.6790 0.0000
                      CHANNELS 3 Yrotation Xrotation Zrotation
                      End Site
                      {
                        OFFSET 0.0000 1.3500 0.0000
                      }
                    }
                  }
                }
                JOINT LeftHandThumb1
                {
                  OFFSET -2.6352 1.9662 0.0890
                  CHANNELS 3 Yrotation Xrotation Zrotation
                  JOINT LeftHandThumb2
                  {
                    OFFSET 0.0000 3.7470 0.0000
                    CHANNELS 3 Yrotation Xrotation Zrotation
                    JOINT LeftHandThumb3
                    {
                      OFFSET 0.0000 2.8440 0.0000
                      CHANNELS 3 Yrotation Xrotation Zrotation
                      End Site
                      {
                        OFFSET 0.0000 1.7295 0.0000
                      }
                    }
                  }
                }
              }
            }
          }
        }
        JOINT Neck
        {
          OFFSET 0.0000 16.9498 0.0000
          CHANNELS 3 Yrotation Xrotation Zrotation
          JOINT Head
          {
            OFFSET 0.0000 10.3509 0.0000
            CHANNELS 3 Yrotation Xrotation Zrotation
            End Site
            {
              OFFSET 0.0000 8.0220 0.0000
            }
          }
        }
        JOINT RightShoulder
        {
          OFFSET -6.6026 9.6620 0.0000
          CHANNELS 3 Yrotation Xrotation Zrotation
          JOINT RightArm
          {
            OFFSET 0.0000 12.6234 0.0000
            CHANNELS 3 Yrotation Xrotation Zrotation
            JOINT RightForeArm
            {
              OFFSET 0.0000 24.4781 0.0000
              CHANNELS 3 Yrotation Xrotation Zrotation
              JOINT RightHand
              {
                OFFSET -0.0001 26.9540 0.0000
                CHANNELS 3 Yrotation Xrotation Zrotation
                JOINT RightHandIndex1
                {
                  OFFSET 2.4222 7.6360 0.0974
                  CHANNELS 3 Yrotation Xrotation Zrotation
                  JOINT RightHandIndex2
                  {
                    OFFSET 0.0000 4.3321 -0.0001
                    CHANNELS 3 Yrotation Xrotation Zrotation
                    JOINT RightHandIndex3
                    {
                      OFFSET 0.0000 2.6652 0.0000
                      CHANNELS 3 Yrotation Xrotation Zrotation
                      End Site
                      {
                        OFFSET 0.0000 1.3566 0.0000
                      }
                    }
                  }
                }
                JOINT RightHandMiddle1
                {
                  OFFSET 0.5154 7.6952 0.0974
                  CHANNELS 3 Yrotation Xrotation Zrotation
                  JOINT RightHandMiddle2
                  {
                    OFFSET 0.0000 4.4473 -0.0001
                    CHANNELS 3 Yrotation Xrotation Zrotation
                    JOINT RightHandMiddle3
                    {
                      OFFSET 0.0000 2.9333 0.0000
                      CHANNELS 3 Yrotation Xrotation Zrotation
                      End Site
                      {
                        OFFSET 0.0000 1.4991 0.0000
                      }
                    }
                  }
                }
                JOINT RightHandPinky1
                {
                  OFFSET -2.9667 6.6374 0.0974
                  CHANNELS 3 Yrotation Xrotation Zrotation
                  JOINT RightHandPinky2
                  {
                    OFFSET 0.0000 3.3613 -0.0001
                    CHANNELS 3 Yrotation Xrotation Zrotation
                    JOINT RightHandPinky3
                    {
                      OFFSET 0.0000 2.1128 0.0000
                      CHANNELS 3 Yrotation Xrotation Zrotation
                      End Site
                      {
                        OFFSET 0.0000 1.1205 0.0000
                      }
                    }
                  }
                }
                JOINT RightHandRing1
                {
                  OFFSET -1.3624 7.3833 0.0974
                  CHANNELS 3 Yrotation Xrotation Zrotation
                  JOINT RightHandRing2
                  {
                    OFFSET 0.0000 4.1540 -0.0001
                    CHANNELS 3 Yrotation Xrotation Zrotation
                    JOINT RightHandRing3
                    {
                      OFFSET 0.0000 2.6790 0.0000
                      CHANNELS 3 Yrotation Xrotation Zrotation
                      End Site
                      {
                        OFFSET 0.0000 1.3500 0.0000
                      }
                    }
                  }
                }
                JOINT RightHandThumb1
                {
                  OFFSET 2.6352 1.9663 0.0889
                  CHANNELS 3 Yrotation Xrotation Zrotation
                  JOINT RightHandThumb2
                  {
                    OFFSET 0.0000 3.7470 -0.0001
                    CHANNELS 3 Yrotation Xrotation Zrotation
                    JOINT RightHandThumb3
                    {
                      OFFSET 0.0000 2.8440 -0.0001
                      CHANNELS 3 Yrotation Xrotation Zrotation
                      End Site
                      {
                        OFFSET 0.0000 1.7295 0.0000
                      }
                    }
                  }
                }
              }
            }
          }
        }
      }
    }
  }
  JOINT LeftUpLeg
  {
    OFFSET 7.5966 0.0000 0.0000
    CHANNELS 3 Yrotation Xrotation Zrotation
    JOINT LeftLeg
    {
      OFFSET 0.0000 40.5152 0.0000
      CHANNELS 3 Yrotation Xrotation Zrotation
      JOINT LeftFoot
      {
        OFFSET 0.0000 40.6090 0.0000
        CHANNELS 3 Yrotation Xrotation Zrotation
        JOINT LeftToeBase
        {
          OFFSET 0.0000 13.6671 0.0000
          CHANNELS 3 Yrotation Xrotation Zrotation
          End Site
          {
            OFFSET 0.0000 3.5000 0.0000
          }
        }
      }
    }
  }
  JOINT RightUpLeg
  {
    OFFSET -7.5966 0.0000 0.0000
    CHANNELS 3 Yrotation Xrotation Zrotation
    JOINT RightLeg
    {
      OFFSET 0.0000 40.5153 0.0000
      CHANNELS 3 Yrotation Xrotation Zrotation
      JOINT RightFoot
      {
        OFFSET 0.0000 40.6090 0.0000
        CHANNELS 3 Yrotation Xrotation Zrotation
        JOINT RightToeBase
        {
          OFFSET 0.0000 13.6671 0.0000
          CHANNELS 3 Yrotation Xrotation Zrotation
          End Site
          {
            OFFSET 0.0000 3.5000 0.0000
          }
        }
      }
    }
  }
}
MOTION
Frames: 4
Frame Time: 0.033333
-4.2168 87.9257 0.2792 -22.5554 -0.8181 -2.5761 -0.3695 0.8505 -1.7547 -0.3696 0.8508 -1.7552 -0.3706 0.8531 -1.7599 139.5730 81.2147 49.8252 59.4075 54.7034 93.3350 21.6512 25.8674 65.0976 -34.7213 19.0365 36.8772 -15.0403 -7.1975 -15.8066 -0.2876 9.5431 -1.7346 0.0000 6.3644 -0.0008 -13.6660 -10.5313 -19.9641 1.7816 24.8139 4.2389 0.0001 16.5970 0.0001 -15.3224 -9.9758 -23.4522 -1.7232 24.9458 -4.0790 -0.0001 16.6832 -0.0006 -14.3707 -10.5421 -21.7670 1.0689 24.7593 2.5510 0.0000 16.5340 -0.0001 31.6303 23.3238 37.2862 7.3402 -27.6977 -20.4053 -0.1114 -3.5699 3.5767 6.9112 4.5471 0.2195 6.9112 4.5471 0.2195 113.5497 77.7967 -145.4752 -7.1977 72.4639 -29.6857 -22.7411 -4.4613 -105.4525 -66.8279 -45.8560 -7.6628 22.8627 40.2349 47.1048 3.5502 68.7523 3.8083 0.0000 46.1783 0.0002 41.6542 49.0062 60.7307 -120.8008 78.3621 -120.2801 -0.0001 64.8338 -0.0002 88.6997 41.1730 95.3035 -28.9197 57.5170 -33.2222 -0.0001 41.5363 0.0001 69.5434 52.1766 81.3201 -30.2314 67.8737 -32.1731 0.0000 47.6860 -0.0001 -55.1012 28.1438 -36.5197 2.5496 21.0722 17.6166 1.4444 12.6527 12.9730 14.7835 -1.6642 -178.0183 0.0286 -15.9070 0.0812 -11.9729 75.8852 -5.3592 0.0000 28.0803 0.0000 12.5600 2.2352 -177.3768 0.0000 -0.0163 -0.0827 -6.9744 69.0522 0.1580 0.0000 22.9617 -0.0001 
-4.2414 87.9309 0.2608 -22.4522 -0.8480 -2.5514 -0.3693 0.8600 -1.7405 -0.3694 0.8603 -1.7410 -0.3705 0.8626 -1.7457 139.5919 81.2354 49.8745 59.3928 54.7048 93.3394 21.5965 25.7895 65.0423 -34.6514 19.3992 36.7790 -15.0818 -6.8438 -15.7905 -0.2896 9.3826 -1.7757 0.0000 6.2575 -0.0009 -13.7586 -9.9819 -20.0570 1.7768 24.5820 4.2648 0.0001 16.4422 0.0001 -15.3687 -9.7500 -23.4885 -1.6935 25.0267 -3.9968 -0.0001 16.7359 -0.0006 -14.5650 -10.1210 -21.8006 1.1128 24.7441 2.6570 0.0000 16.5250 -0.0001 31.9520 24.1166 37.3130 7.6380 -28.2489 -20.4925 -0.1256 -3.7898 3.7980 6.3586 4.7517 -0.1000 6.3586 4.7516 -0.1000 113.9705 77.8562 -144.9277 -6.6162 72.9571 -29.2713 -22.7571 -4.7316 -106.1418 -58.3353 -30.1160 -12.1055 24.2217 40.2400 48.4484 5.0182 67.6127 5.4248 0.0000 45.4352 0.0002 42.5019 49.7744 61.4787 -111.2773 79.4224 -110.9474 -0.0001 63.3685 -0.0002 90.7539 43.3924 96.4012 -25.4847 54.9058 -30.2227 -0.0001 39.3521 0.0001 71.6319 53.7477 82.7922 -24.9431 64.4518 -27.2714 0.0000 44.9436 -0.0001 -54.1292 28.6982 -36.4054 3.1787 22.2057 19.6186 1.6875 13.6383 14.0420 14.7298 -1.5924 -178.0126 0.0250 -15.8033 0.0811 -11.9968 75.8372 -5.4333 0.0000 28.0508 0.0000 12.5101 2.2372 -177.3680 0.0000 -0.0885 -0.0827 -7.1107 69.1104 -0.0066 0.0000 22.9376 -0.0001 
-4.2533 87.9332 0.2495 -22.4088 -0.8819 -2.5306 -0.3707 0.8707 -1.7285 -0.3708 0.8710 -1.7290 -0.3718 0.8733 -1.7337 139.8390 81.2377 50.1078 59.3412 54.7533 93.3778 21.6037 25.8306 64.9821 -34.6507 19.4824 36.7144 -15.1059 -6.8099 -15.7887 -0.2879 9.3592 -1.7700 0.0000 6.2419 -0.0008 -13.7734 -9.9099 -20.0719 1.7808 24.5439 4.2807 0.0001 16.4170 0.0001 -15.3887 -9.7175 -23.4844 -1.6960 25.0219 -4.0034 -0.0001 16.7328 -0.0006 -14.5825 -10.0548 -21.8040 1.1141 24.7337 2.6611 0.0000 16.5181 -0.0001 31.9728 24.1267 37.3100 7.6305 -28.2334 -20.4973 -0.1251 -3.7814 3.7896 5.5976 5.0776 -0.4565 5.5976 5.0776 -0.4565 113.8361 77.9961 -145.0757 -4.5390 73.1263 -27.2510 -23.8455 -4.4940 -105.0569 -55.6405 -28.5513 -14.3054 24.2065 40.3193 48.6264 5.5634 66.7870 6.0499 -0.0001 44.8908 0.0001 42.5427 49.7505 61.6341 -106.5657 79.9381 -106.3247 -0.0001 62.6996 -0.0002 91.9611 43.5764 97.5339 -23.9253 52.7117 -29.1461 -0.0001 37.7545 0.0002 72.1229 53.6388 83.3352 -23.4337 63.2612 -25.8891 0.0000 44.0177 -0.0001 -53.8965 28.9369 -36.3329 3.4894 22.8294 20.5589 1.8158 14.1265 14.5766 14.7131 -1.5277 -178.0129 0.0211 -15.7320 0.0813 -12.0116 75.8094 -5.4742 0.0000 28.0272 0.0000 12.4965 2.2062 -177.3668 -0.0001 -0.2236 -0.0827 -7.1894 69.1709 -0.1096 0.0000 22.9406 -0.0001 
-4.2866 87.9358 0.2466 -22.4335 -0.9261 -2.5123 -0.3361 0.8918 -1.7155 -0.3362 0.8921 -1.7160 -0.3372 0.8945 -1.7206 140.7095 81.2478 50.9020 59.2503 54.6574 93.4454 21.5879 25.8252 64.9254 -34.6543 19.6011 36.6234 -15.1422 -6.7531 -15.7823 -0.2911 9.2891 -1.8028 0.0000 6.1952 -0.0008 -13.8310 -9.7689 -20.0905 1.7867 24.4271 4.3140 0.0001 16.3394 0.0001 -15.4551 -9.6281 -23.4678 -1.7019 24.9158 -4.0334 0.0000 16.6623 -0.0006 -14.6137 -9.9119 -21.8076 1.0914 24.6695 2.6133 0.0000 16.4747 -0.0001 32.0328 24.2270 37.3317 7.6616 -28.2845 -20.5328 -0.1259 -3.7936 3.8019 4.6961 5.4420 -0.8000 4.6961 5.4420 -0.8000 113.1977 78.1140 -145.9453 -4.7871 72.4938 -27.2398 -23.9504 -3.9919 -103.7765 -57.5811 -36.8264 -14.2285 24.0023 41.3114 48.6828 4.6191 66.2641 5.0438 -0.0001 44.5123 0.0002 43.0265 49.8633 62.1289 -106.3351 80.2794 -106.1129 -0.0001 62.6071 -0.0002 92.3578 42.7750 98.1721 -24.0816 52.7442 -29.3147 -0.0001 37.8050 0.0002 72.1919 52.9001 83.5210 -24.5579 64.7656 -26.8009 0.0000 45.0826 -0.0001 -54.6318 28.9796 -36.6254 3.2846 22.4255 19.9434 1.7317 13.8085 14.2280 14.7120 -1.4726 -177.9918 0.0159 -15.7209 0.0810 -12.0943 75.7674 -5.5749 0.0000 28.0865 0.0000 12.5294 2.2032 -177.3501 -0.0001 -0.3210 -0.0826 -7.3015 69.2213 -0.2291 0.0000 22.9356 -0.0001 
